<svg xmlns="http://www.w3.org/2000/svg" width="1200" height="800" viewBox="0 0 1200 800">
  <defs>
    <filter id="noise" x="0%" y="0%" width="100%" height="100%">
      <feTurbulence type="fractalNoise" baseFrequency="0.01" numOctaves="3" seed="2" />
      <feDisplacementMap in="SourceGraphic" scale="10" />
    </filter>
    <filter id="blur" x="-10%" y="-10%" width="120%" height="120%">
      <feGaussianBlur in="SourceGraphic" stdDeviation="12" />
    </filter>
  </defs>
  
  <!-- 底层纸张纹理 -->
  <rect width="100%" height="100%" fill="#FFFDF5" opacity="0.7" />
  
  <!-- 随机墨点 -->
  <g opacity="0.03" filter="url(#noise)">
    <rect width="100%" height="100%" fill="#000" />
  </g>
  
  <!-- 水墨效果 - 主要形状 -->
  <g filter="url(#blur)" opacity="0.07">
    <!-- 大墨晕 1 -->
    <path d="M300,100 C400,150 500,80 600,120 S800,200 900,150 Q1000,50 1100,100 T1300,150 V800 H-100 V150 Q0,100 100,150 T300,100" fill="#000" />
    
    <!-- 大墨晕 2 -->
    <path d="M-100,400 C0,350 200,380 300,420 S500,500 600,450 Q700,350 800,400 T1000,450 Q1100,400 1200,450 V800 H-100 V400" fill="#000" />
    
    <!-- 飘逸笔触 -->
    <path d="M700,200 Q800,300 900,250 T1100,320" stroke="#000" stroke-width="30" fill="none" opacity="0.5" />
    <path d="M100,500 Q300,400 500,450 T800,350" stroke="#000" stroke-width="20" fill="none" opacity="0.4" />
    <path d="M900,600 Q800,500 700,550 T500,450" stroke="#000" stroke-width="15" fill="none" opacity="0.3" />
  </g>
  
  <!-- 轻微网格纹理 -->
  <g opacity="0.02">
    <path d="M0,0 H1200 M0,50 H1200 M0,100 H1200 M0,150 H1200 M0,200 H1200 M0,250 H1200 M0,300 H1200 M0,350 H1200 M0,400 H1200 M0,450 H1200 M0,500 H1200 M0,550 H1200 M0,600 H1200 M0,650 H1200 M0,700 H1200 M0,750 H1200" stroke="#000" stroke-width="0.5" opacity="0.05" />
    <path d="M0,0 V800 M50,0 V800 M100,0 V800 M150,0 V800 M200,0 V800 M250,0 V800 M300,0 V800 M350,0 V800 M400,0 V800 M450,0 V800 M500,0 V800 M550,0 V800 M600,0 V800 M650,0 V800 M700,0 V800 M750,0 V800 M800,0 V800 M850,0 V800 M900,0 V800 M950,0 V800 M1000,0 V800 M1050,0 V800 M1100,0 V800 M1150,0 V800" stroke="#000" stroke-width="0.5" opacity="0.05" />
  </g>
</svg> 